<svg width="292" height="117" viewBox="0 0 292 117" fill="none" xmlns="http://www.w3.org/2000/svg">
<path d="M8.91808 93.9005C8.90644 90.4019 9.23598 86.8594 9.90672 83.2732C10.6625 79.6013 11.5466 76.0143 12.5589 72.5123C13.6563 68.9246 14.882 65.4218 16.236 62.004C17.5899 58.5861 18.9442 55.2536 20.2987 52.0064C21.8219 48.1613 23.3881 44.4014 24.9972 40.7267C26.6916 37.0517 28.5142 33.4189 30.465 29.8284C31.3126 28.1189 32.2467 26.7505 33.2673 25.7231C34.3729 24.6101 35.9495 23.9648 37.9969 23.7873C38.2529 23.7865 38.6369 23.7852 39.1489 23.7835C39.6609 23.7818 40.1732 23.8654 40.6857 24.0344C41.198 24.118 41.6252 24.2873 41.9674 24.5421C42.3947 24.7114 42.5663 25.0095 42.4824 25.4364C42.3146 26.2903 41.8484 27.2305 41.0838 28.2571C40.3189 29.1983 39.7244 30.0536 39.3003 30.823C38.3673 32.5328 37.4344 34.2426 36.5014 35.9524C35.6537 37.6619 34.8061 39.3714 33.9584 41.0809C32.7712 43.3035 31.6691 45.4832 30.6522 47.6199C29.7206 49.7564 28.7465 51.9356 27.7299 54.1577C29.692 53.9805 31.6537 53.6753 33.6149 53.2421C35.5761 52.8089 37.5369 52.2477 39.4973 51.5585C41.7985 50.6975 44.0134 49.5808 46.1422 48.2084C48.271 46.8359 50.2285 45.2934 52.0148 43.5808C53.8009 41.7828 55.3303 39.8151 56.6032 37.6775C57.8761 35.5399 58.7646 33.2756 59.2686 30.8846C59.9416 27.981 59.8906 25.4638 59.1155 23.333C58.3404 21.2023 57.0974 19.4997 55.3865 18.2254C53.6753 16.8658 51.624 15.8913 49.2327 15.3019C46.8411 14.6272 44.3653 14.2941 41.8054 14.3026C39.3307 14.3108 36.857 14.6177 34.3844 15.2233C31.9968 15.7433 29.9088 16.5609 28.1205 17.6762C24.5431 19.6508 21.6083 22.4339 19.3162 26.0255C17.1092 29.5315 15.6709 33.2484 15.0013 37.1759C14.6654 38.7984 14.5003 40.463 14.5059 42.1696C14.5967 43.7907 14.9859 45.368 15.6737 46.9018C16.1897 48.0947 16.1921 48.82 15.6809 49.0777C15.2551 49.3352 14.4449 49.4659 13.2502 49.4698C11.0319 49.5626 9.40841 48.928 8.37987 47.566C7.43666 46.2038 6.83394 44.5845 6.57169 42.708C6.39449 40.7459 6.51582 38.7402 6.93567 36.6908C7.35551 34.6414 7.81931 32.9758 8.32704 31.6941C9.34394 29.5574 10.6173 27.5478 12.147 25.6654C13.6765 23.6976 15.3773 21.9426 17.2495 20.4004C19.2068 18.7725 21.2501 17.3577 23.3794 16.1559C25.5941 14.9539 27.8523 14.0077 30.154 13.3174C32.2 12.7132 34.6304 12.2358 37.4453 11.8851C40.3452 11.4488 43.2887 11.311 46.276 11.4717C49.3482 11.5468 52.3361 11.9209 55.2397 12.5939C58.1433 13.2669 60.6642 14.3252 62.8023 15.7687C64.9405 17.2123 66.5254 19.0844 67.5571 21.3849C68.6738 23.5999 68.8963 26.3725 68.2248 29.7028C67.806 32.0935 67.0026 34.2722 65.8145 36.2388C64.7117 38.2052 63.3523 40.0017 61.7364 41.6284C60.1205 43.2551 58.3335 44.7544 56.3753 46.1263C54.417 47.4128 52.4156 48.6142 50.3713 49.7303C46.3678 51.877 42.5332 53.5111 38.8676 54.6326C39.0382 54.632 39.1664 54.6743 39.252 54.7593C39.4226 54.7588 39.5933 54.7582 39.764 54.7576C41.8128 55.0068 43.2225 55.5141 43.9931 56.2796C44.7636 57.045 45.2802 58.4086 45.5427 60.3704C45.7199 62.3325 45.8116 64.2522 45.8179 66.1295C45.9092 67.9212 45.9581 69.7984 45.9646 71.7611C45.9669 72.4437 45.9292 73.9372 45.8515 76.2415C45.8589 78.4601 45.9095 80.8493 46.0034 83.409C46.1823 85.8831 46.4457 88.1009 46.7935 90.0624C47.2267 92.0237 47.9553 93.0026 48.9793 92.9992C50.0886 92.9955 51.1539 92.5653 52.175 91.7085C53.1965 90.9371 54.132 89.9953 54.9816 88.8832C55.8313 87.771 56.5954 86.6165 57.2741 85.4195C57.9528 84.2226 58.5042 83.2394 58.9283 82.47L67.7053 65.9287C67.8751 65.6721 68.0872 65.2874 68.3415 64.7746C68.5958 64.2617 68.8929 63.7914 69.2328 63.3636C69.5724 62.8505 69.9126 62.508 70.2534 62.3362C70.6792 62.0788 71.1485 62.0772 71.6614 62.3315C72.1745 62.6711 72.4321 63.1396 72.434 63.7369C72.4357 64.2489 72.3096 64.804 72.0556 65.4022C71.8013 65.9151 71.4618 66.4709 71.0371 67.0696C70.6975 67.5827 70.4429 68.0103 70.2734 68.3522C68.5764 71.2592 66.9222 74.2087 65.3108 77.2007C63.7845 80.1072 62.13 82.9713 60.3474 85.7933C59.7532 86.7339 59.0741 87.8029 58.31 89.0001C57.546 90.1973 56.6539 91.3523 55.6336 92.465C54.6986 93.5775 53.6776 94.4769 52.5705 95.1632C51.5491 95.9346 50.3984 96.3225 49.1184 96.3267C47.6677 96.3316 46.4285 95.781 45.4009 94.6751C44.4585 93.5689 43.6434 92.2489 42.9557 90.7152C42.3532 89.1812 41.8786 87.6041 41.5319 85.9839C41.1852 84.3637 40.882 82.9994 40.6223 81.8909C39.8435 78.6508 39.1926 75.3676 38.6695 72.0414C38.2318 68.7148 37.794 65.3882 37.3563 62.0617C37.3551 61.7203 37.2682 61.2513 37.0956 60.6545C36.9227 59.9724 36.7497 59.2903 36.5768 58.6083C36.4892 57.9259 36.4017 57.2862 36.3144 56.6891C36.2271 56.0921 36.2682 55.6226 36.4377 55.2807C34.7325 55.713 33.0271 56.1027 31.3216 56.4497C29.7014 56.7965 27.9956 57.0581 26.2041 57.2348L23.9181 62.6184C22.2236 66.2934 20.6572 69.968 19.2187 73.6421C17.78 77.2309 16.3842 80.9049 15.0314 84.6641C14.4389 86.1168 13.8892 87.6119 13.3823 89.1496C12.9605 90.6017 12.5816 92.139 12.2456 93.7614C12.162 94.2737 11.9074 94.7012 11.4819 95.044C11.142 95.4718 10.7587 95.6864 10.332 95.6878C9.90566 95.7746 9.52137 95.6905 9.17919 95.4356C8.92234 95.1805 8.8353 94.6688 8.91808 93.9005ZM81.3979 88.9233C83.7011 88.6596 85.9176 88.0122 88.0475 86.9811C90.2625 85.8644 92.3488 84.5774 94.3067 83.1203C96.3496 81.5775 98.2213 79.9072 99.922 78.1095C101.708 76.3116 103.324 74.5995 104.769 72.9734C107.404 69.9779 109.655 66.8131 111.521 63.4789C111.776 62.966 112.116 62.5382 112.541 62.1955C112.967 61.8527 113.521 61.8509 114.205 62.1899C115.06 62.7844 115.234 63.5518 114.725 64.4922C114.301 65.3469 113.919 66.0736 113.58 66.672C112.476 68.297 110.862 70.3504 108.737 72.8322C106.697 75.3136 104.316 77.8389 101.594 80.408C98.9566 82.8914 96.1056 85.2049 93.0407 87.3485C90.0612 89.4918 87.1222 90.9949 84.2237 91.8579C81.3255 92.8062 78.5951 92.9006 76.0326 92.1411C73.5557 91.4667 71.4585 89.511 69.741 86.274C68.5387 83.974 67.7628 81.5873 67.4132 79.1137C67.0636 76.6402 67.0127 74.1657 67.2605 71.6902C67.5082 69.2147 67.9695 66.7812 68.6442 64.3896C69.3189 61.998 70.1219 59.6913 71.0532 57.4695C72.2382 54.5642 73.5944 51.829 75.1219 49.2639C76.7344 46.6132 78.6891 44.2174 80.986 42.0764C83.4533 39.8495 85.7533 38.6471 87.886 38.4694C90.0185 38.2063 92.4535 39.0942 95.1909 41.1331C96.8162 42.3223 98.3994 43.6824 99.9405 45.2133C101.481 46.6588 102.554 48.3619 103.158 50.3226C103.503 51.6868 103.465 53.0949 103.044 54.547C102.622 55.9991 101.944 57.452 101.01 58.9058C100.161 60.274 99.1416 61.5574 97.9509 62.756C96.8456 63.9544 95.825 64.9818 94.8892 65.8382C91.9961 68.3225 88.6324 70.4244 84.7981 72.1438C80.9638 73.8633 77.2127 74.9424 73.5448 75.3813C73.2942 77.0035 73.1717 78.6679 73.1774 80.3746C73.1828 81.9959 73.4438 83.4884 73.9603 84.852C74.5619 86.13 75.4188 87.1938 76.531 88.0434C77.7282 88.8075 79.3505 89.1007 81.3979 88.9233ZM92.0468 57.9116C92.5562 57.1419 93.0654 56.2869 93.5742 55.3465C94.0828 54.3208 94.5487 53.2953 94.972 52.2699C95.395 51.1591 95.6474 50.0916 95.7294 49.0673C95.8966 48.0428 95.8507 47.0616 95.5916 46.1238C95.2471 45.1862 94.6909 44.7188 93.9229 44.7213C93.1546 44.6385 92.3445 44.8119 91.4926 45.2414C90.6407 45.6709 89.8319 46.2283 89.0661 46.9135C88.3001 47.5134 87.747 47.9846 87.4068 48.327C84.4304 51.409 81.7545 55.0445 79.3791 59.2338C77.089 63.4228 75.3964 67.6524 74.3013 71.9228C78.1387 71.142 81.5464 69.424 84.5242 66.7687C87.502 64.1135 90.0096 61.1611 92.0468 57.9116ZM145.208 69.7668C143.85 72.1606 142.322 74.4697 140.623 76.6941C138.923 78.9184 137.096 81.0578 135.14 83.1124C134.204 84.0541 133.141 85.0817 131.95 86.195C130.759 87.223 129.525 88.2084 128.248 89.1513C126.971 90.0089 125.608 90.6961 124.159 91.213C122.71 91.7298 121.26 91.9053 119.809 91.7394C117.76 91.5756 115.923 90.8137 114.297 89.4538C112.671 88.0085 111.641 86.2199 111.207 84.088C109.682 87.4211 108.242 90.7539 106.888 94.0864C105.449 97.4193 104.138 100.88 102.955 104.468C102.025 107.287 101.395 110.105 101.063 112.922C100.98 113.69 100.768 114.203 100.428 114.46C100.088 114.717 99.7463 114.761 99.4044 114.591C98.9772 114.422 98.5921 114.082 98.249 113.571C97.9063 113.146 97.7341 112.677 97.7324 112.165C97.5489 108.326 97.9629 104.527 98.9744 100.769C99.9009 97.0964 100.955 93.4662 102.138 89.8782L110.761 65.5294C113.298 58.6089 116.22 51.9432 119.527 45.5321C120.375 43.9079 121.31 42.9235 122.333 42.5788C123.355 42.1487 124.763 42.0587 126.556 42.3087C126.727 42.3081 126.983 42.3073 127.324 42.3061C127.751 42.3047 128.135 42.3461 128.476 42.4303C128.903 42.5142 129.245 42.6411 129.502 42.8109C129.758 42.9807 129.802 43.2366 129.632 43.5785L119.593 65.5C121.631 62.5065 123.755 59.6408 125.965 56.9028C128.174 54.0794 130.341 51.2988 132.465 48.5611C133.91 46.8496 135.355 45.2661 136.801 43.8106C138.247 42.3551 140.078 41.4104 142.296 40.9763C143.404 40.7166 144.258 40.7991 144.857 41.2238C145.455 41.6485 146.097 42.1157 146.781 42.6254C148.321 43.9003 149.394 45.518 149.997 47.4787C150.601 49.4394 150.821 51.4013 150.657 53.3646C150.411 56.3521 149.78 59.2128 148.766 61.9469C147.751 64.681 146.565 67.2876 145.208 69.7668ZM137.389 66.5928C137.982 65.2255 138.659 63.5592 139.42 61.594C140.267 59.5432 140.985 57.4501 141.575 55.3148C142.166 53.1795 142.543 51.1302 142.707 49.167C142.956 47.1181 142.78 45.4121 142.178 44.0487C140.813 44.2239 139.536 44.9535 138.345 46.2375C137.154 47.4361 136.134 48.5062 135.284 49.4477C133.839 51.1592 132.394 52.8707 130.949 54.5821C129.589 56.208 128.272 57.9617 126.998 59.8433L119.484 71.1324C118.635 72.5859 117.617 74.168 116.428 75.8786C115.239 77.5892 114.476 79.2131 114.14 80.7502C114.142 81.4329 114.23 82.2006 114.404 83.0534C114.577 83.8208 114.835 84.5879 115.179 85.3548C115.608 86.1214 116.08 86.8025 116.594 87.3981C117.193 87.9081 117.877 88.2898 118.646 88.5433C119.842 88.966 120.951 88.8769 121.973 88.2762C122.995 87.6755 123.889 86.9898 124.654 86.2193C127.547 83.735 130.012 80.7401 132.048 77.2346C134.17 73.6435 135.95 70.0963 137.389 66.5928ZM189.348 15.6036C186.635 20.9033 183.965 26.2029 181.337 31.5023C178.795 36.7161 176.21 42.0581 173.583 47.5282C171.803 51.3742 170.024 55.2628 168.245 59.194C166.466 63.04 164.815 67.0135 163.293 71.1146C163.039 71.6274 162.573 72.8237 161.897 74.7033C161.221 76.5829 160.587 78.5476 159.997 80.5976C159.406 82.6476 159.071 84.4834 158.991 86.105C158.911 87.7266 159.34 88.4932 160.279 88.4047C161.644 88.3148 163.007 87.7983 164.369 86.8551C165.732 85.9119 167.008 84.7983 168.198 83.5143C169.474 82.2301 170.622 80.9036 171.641 79.5349C172.746 78.0805 173.68 76.8401 174.445 75.8135C175.634 74.1882 176.781 72.563 177.885 70.938C178.989 69.313 180.092 67.6453 181.196 65.935C181.536 65.4218 181.832 64.8662 182.086 64.268C182.425 63.5842 182.808 63.0283 183.233 62.6002C183.913 61.7446 184.637 61.5715 185.407 62.0809C186.262 62.5048 186.478 63.2294 186.054 64.2548C185.461 65.4515 184.655 66.8195 183.636 68.3589C182.617 69.8983 181.683 71.2667 180.834 72.4642C179.645 74.1749 178.37 75.8431 177.01 77.469C175.736 79.0946 174.376 80.6778 172.93 82.2186C172.165 83.1598 171.315 84.1866 170.38 85.2991C169.445 86.3262 168.425 87.3536 167.319 88.3813C166.298 89.3234 165.148 90.0952 163.87 90.6968C162.678 91.3834 161.442 91.7289 160.162 91.7331C159.052 91.7368 158.156 91.4838 157.471 90.9741C156.701 90.4646 156.102 89.8266 155.673 89.0601C155.158 88.2938 154.772 87.4844 154.513 86.6319C154.168 85.6944 153.909 84.7992 153.736 83.9465C153.302 81.7292 153.38 79.553 153.97 77.4177C154.475 75.1973 155.022 73.0621 155.613 71.0122C157.048 66.314 158.611 61.7008 160.303 57.1725C161.994 52.6441 163.814 48.1581 165.762 43.7142C167.626 39.7827 169.491 35.8938 171.355 32.0475C173.305 28.201 175.298 24.3544 177.333 20.5076C177.842 19.6526 178.266 18.8405 178.605 18.0713C179.029 17.3019 179.496 16.6177 180.006 16.0187C180.516 15.4196 181.112 14.9483 181.793 14.6047C182.474 14.1758 183.37 13.9595 184.479 13.9558C184.735 13.9549 185.162 13.9535 185.759 13.9515C186.356 13.9495 186.954 14.0329 187.552 14.2015C188.149 14.2849 188.619 14.454 188.962 14.7089C189.389 14.8781 189.518 15.1763 189.348 15.6036ZM200.504 43.3426C200.165 44.1117 199.403 45.7356 198.216 48.2142C197.03 50.6929 195.717 53.5559 194.277 56.8034C192.837 60.0509 191.312 63.512 189.703 67.1867C188.179 70.7758 186.868 74.1082 185.768 77.1838C184.669 80.2595 183.867 82.8649 183.362 84.9999C182.943 87.0493 183.117 88.158 183.885 88.3262C184.74 88.5793 185.678 88.4482 186.7 87.9328C187.808 87.4171 188.872 86.7309 189.893 85.8741C190.915 85.0174 191.85 84.1183 192.7 83.1768C193.551 82.2353 194.231 81.5077 194.741 80.994C196.442 79.2816 198.015 77.4844 199.459 75.6023C200.989 73.7198 202.433 71.795 203.792 69.8278C204.387 68.9725 204.938 68.16 205.448 67.3903C206.042 66.535 206.594 65.6798 207.103 64.8248C207.358 64.3972 207.612 63.8844 207.866 63.2862C208.205 62.6024 208.588 62.1318 209.014 61.8744C209.78 61.4452 210.463 61.5282 211.062 62.1236C211.662 62.7189 211.749 63.4013 211.325 64.1707C211.156 64.6833 210.859 65.2389 210.435 65.8377C210.01 66.4364 209.628 66.9924 209.288 67.5055C206.826 71.3537 204.023 75.1604 200.878 78.9256C197.819 82.6051 194.416 85.8591 190.671 88.6876C189.99 89.2018 189.181 89.7592 188.244 90.3597C187.393 90.8745 186.498 91.2615 185.56 91.5206C184.622 91.7797 183.684 91.8255 182.745 91.658C181.805 91.4904 180.993 90.9385 180.307 90.0021C179.106 88.1287 178.459 85.9975 178.366 83.6085C178.187 81.1344 178.35 78.7872 178.854 76.5668C179.948 71.8698 181.213 67.2149 182.648 62.6021C184.169 57.989 186.031 53.5028 188.235 49.1435C188.659 48.2887 189.04 47.3914 189.378 46.4516C189.802 45.5116 190.268 44.6993 190.778 44.015C191.288 43.2453 191.926 42.6458 192.692 42.2166C193.458 41.702 194.439 41.4854 195.634 41.5668C195.805 41.5662 196.189 41.6076 196.786 41.691C197.384 41.7743 197.982 41.9003 198.58 42.069C199.177 42.1523 199.69 42.3213 200.117 42.5759C200.545 42.7451 200.673 43.0007 200.504 43.3426ZM205.544 19.3897C207.682 20.6626 208.881 22.1093 209.143 23.7297C209.404 25.2649 209.067 26.7167 208.133 28.0851C207.284 29.368 206.008 30.5242 204.305 31.5539C202.686 32.4979 200.982 33.0156 199.19 33.1069C198.678 33.1086 198.038 33.0681 197.269 32.9853C196.501 32.8172 196.286 32.2632 196.624 31.3234C196.708 31.0672 196.835 30.8107 197.005 30.5542C197.26 30.212 197.515 29.7845 197.769 29.2716C198.109 28.7585 198.49 28.0745 198.914 27.2198C199.338 26.365 199.846 25.254 200.439 23.8867C200.693 23.2885 200.988 22.2635 201.325 20.8117C201.661 19.3599 202.128 18.4624 202.724 18.1191C203.065 17.9473 203.534 18.0737 204.133 18.4984C204.817 18.9228 205.288 19.2199 205.544 19.3897ZM220.397 88.4606C222.7 88.197 224.917 87.5496 227.047 86.5185C229.262 85.4018 231.348 84.1148 233.306 82.6576C235.349 81.1148 237.221 79.4446 238.921 77.6469C240.707 75.849 242.323 74.1369 243.768 72.5108C246.404 69.5153 248.654 66.3505 250.521 63.0162C250.775 62.5034 251.115 62.0756 251.54 61.7328C251.966 61.3901 252.521 61.3882 253.204 61.7273C254.06 62.3218 254.233 63.0892 253.724 64.0296C253.3 64.8843 252.919 65.6109 252.579 66.2094C251.475 67.8344 249.861 69.8878 247.736 72.3696C245.696 74.851 243.315 77.3763 240.593 79.9454C237.956 82.4288 235.105 84.7423 232.04 86.8859C229.06 89.0291 226.121 90.5323 223.223 91.3953C220.325 92.3436 217.594 92.438 215.032 91.6785C212.555 91.0041 210.458 89.0484 208.74 85.8114C207.538 83.5114 206.762 81.1246 206.412 78.6511C206.063 76.1776 206.012 73.7031 206.26 71.2276C206.507 68.7521 206.969 66.3185 207.643 63.927C208.318 61.5354 209.121 59.2287 210.052 57.0069C211.237 54.1016 212.594 51.3664 214.121 48.8013C215.734 46.1506 217.688 43.7547 219.985 41.6138C222.452 39.3869 224.753 38.1845 226.885 38.0068C229.018 37.7437 231.453 38.6316 234.19 40.6705C235.815 41.8597 237.399 43.2198 238.94 44.7507C240.481 46.1962 241.553 47.8993 242.157 49.86C242.503 51.2242 242.465 52.6323 242.043 54.0844C241.621 55.5365 240.943 56.9894 240.009 58.4432C239.161 59.8114 238.141 61.0948 236.95 62.2934C235.845 63.4918 234.824 64.5192 233.888 65.3756C230.995 67.8599 227.632 69.9618 223.797 71.6812C219.963 73.4007 216.212 74.4798 212.544 74.9187C212.293 76.5409 212.171 78.2053 212.177 79.912C212.182 81.5333 212.443 83.0258 212.96 84.3894C213.561 85.6674 214.418 86.7312 215.53 87.5808C216.727 88.3449 218.35 88.6381 220.397 88.4606ZM231.046 57.449C231.555 56.6793 232.065 55.8243 232.573 54.8839C233.082 53.8582 233.548 52.8327 233.971 51.8073C234.394 50.6965 234.647 49.629 234.729 48.6047C234.896 47.5802 234.85 46.599 234.591 45.6612C234.246 44.7236 233.69 44.2562 232.922 44.2587C232.154 44.1759 231.344 44.3493 230.492 44.7788C229.64 45.2083 228.831 45.7657 228.065 46.4509C227.299 47.0508 226.746 47.5219 226.406 47.8644C223.43 50.9463 220.754 54.5819 218.378 58.7712C216.088 62.9602 214.396 67.1898 213.301 71.4602C217.138 70.6794 220.546 68.9614 223.523 66.3061C226.501 63.6509 229.009 60.6985 231.046 57.449ZM270.704 50.533C271.045 50.2759 271.428 50.1466 271.855 50.1452C272.281 50.0584 272.708 50.0143 273.134 50.0129C273.561 50.0115 274.03 49.9673 274.542 49.8802C275.053 49.7079 275.522 49.365 275.947 48.8515C277.307 47.3963 277.729 45.8589 277.211 44.2393C276.779 42.5341 275.709 41.471 274.001 41.05C271.78 40.3747 269.733 40.6802 267.86 41.9664C266.072 43.2524 264.669 44.7504 263.651 46.4605C262.464 48.9391 262.217 51.4573 262.908 54.015C263.599 56.4873 264.928 58.5309 266.896 60.1457C269.976 62.6102 272.034 65.6327 273.07 69.2132C274.106 72.7085 273.99 76.3355 272.723 80.0944C271.962 82.3157 270.859 84.282 269.414 85.9935C268.054 87.6194 266.437 88.9474 264.563 89.9777C262.689 90.9226 260.686 91.4839 258.553 91.6617C256.42 91.8394 254.243 91.5053 252.022 90.6594C249.715 89.7284 247.79 88.3695 246.248 86.5826C244.706 84.7104 243.59 82.6661 242.9 80.4497C242.21 78.2333 242.031 75.9299 242.365 73.5394C242.613 71.1493 243.373 68.9281 244.646 66.8758C245.496 65.6783 246.516 64.6509 247.708 63.7936C248.814 62.8513 250.092 62.2497 251.542 61.9888C253.494 58.6543 255.233 55.6619 256.76 53.0114C258.373 50.3607 259.39 48.4373 259.813 47.2412C261 44.7626 262.742 42.5808 265.039 40.6958C267.422 38.8105 270.065 37.9484 272.967 38.1094C275.186 38.2727 276.98 38.9494 278.35 40.1395C279.719 41.2443 280.662 42.6492 281.18 44.3541C281.697 45.9737 281.746 47.7229 281.325 49.6016C280.99 51.3948 280.227 53.0613 279.038 54.6013C278.613 55.1147 278.06 55.6712 277.379 56.2708C276.699 56.8704 275.975 57.3848 275.208 57.8141C274.442 58.1579 273.632 58.4166 272.779 58.5901C271.926 58.6783 271.115 58.5957 270.346 58.3422C269.577 58.0035 269.021 57.4933 268.677 56.8118C268.419 56.13 268.331 55.4049 268.414 54.6366C268.497 53.8684 268.708 53.1423 269.047 52.4585C269.471 51.6891 270.023 51.0473 270.704 50.533ZM255.383 62.2321C255.725 62.3163 256.152 62.4855 256.665 62.7398C257.263 62.9938 257.69 63.2057 257.947 63.3755C258.46 63.7152 258.674 64.0558 258.59 64.3974C258.591 64.6534 258.421 64.9526 258.081 65.2951C257.741 65.5522 257.358 65.8095 256.932 66.0669C256.506 66.239 256.165 66.3681 255.909 66.4543C254.206 67.5693 252.804 69.1953 251.701 71.3324C250.599 73.384 250.009 75.562 249.931 77.8663C249.768 80.0855 250.159 82.1749 251.104 84.1344C252.049 86.0086 253.717 87.3257 256.109 88.0858C258.416 88.8461 260.464 88.882 262.253 88.1933C264.128 87.4191 265.618 86.3048 266.722 84.8504C267.827 83.3108 268.503 81.5165 268.752 79.4677C269.002 77.4188 268.611 75.4148 267.58 73.4555C266.636 71.752 265.479 70.2625 264.11 68.9871C262.74 67.7116 261.498 66.2224 260.383 64.5194C258.839 62.2206 258.021 59.8766 257.927 57.4876L255.383 62.2321Z" fill="#309A94"/>
</svg>
